<mxfile host="app.diagrams.net" modified="2022-12-09T07:49:46.074Z" agent="5.0 (Windows NT 10.0; Win64; x64) AppleWebKit/537.36 (KHTML, like Gecko) Chrome/108.0.0.0 Safari/537.36" etag="8uMYaoDtTGDSorpNxANt" version="20.6.2" type="github">
  <diagram id="EWTnANCkMsUeMdHVheLY" name="페이지-1">
    <mxGraphModel dx="717" dy="1805" grid="1" gridSize="10" guides="1" tooltips="1" connect="1" arrows="1" fold="1" page="1" pageScale="1" pageWidth="827" pageHeight="1169" math="0" shadow="0">
      <root>
        <mxCell id="0" />
        <mxCell id="1" parent="0" />
        <mxCell id="xCD-Z-dLWQwIkPLPfsmC-1" value="회원" style="rounded=0;whiteSpace=wrap;html=1;" parent="1" vertex="1">
          <mxGeometry x="160" y="350" width="120" height="60" as="geometry" />
        </mxCell>
        <mxCell id="xCD-Z-dLWQwIkPLPfsmC-2" value="제품" style="rounded=0;whiteSpace=wrap;html=1;" parent="1" vertex="1">
          <mxGeometry x="840" y="440" width="120" height="60" as="geometry" />
        </mxCell>
        <mxCell id="xCD-Z-dLWQwIkPLPfsmC-3" value="제품분류" style="rounded=0;whiteSpace=wrap;html=1;" parent="1" vertex="1">
          <mxGeometry x="730" y="610" width="120" height="60" as="geometry" />
        </mxCell>
        <mxCell id="xCD-Z-dLWQwIkPLPfsmC-4" value="게시글" style="rounded=0;whiteSpace=wrap;html=1;" parent="1" vertex="1">
          <mxGeometry x="160" y="610" width="120" height="60" as="geometry" />
        </mxCell>
        <mxCell id="xCD-Z-dLWQwIkPLPfsmC-5" value="게시글 분류" style="rounded=0;whiteSpace=wrap;html=1;" parent="1" vertex="1">
          <mxGeometry x="20" y="500" width="120" height="60" as="geometry" />
        </mxCell>
        <mxCell id="xCD-Z-dLWQwIkPLPfsmC-6" value="주문" style="rhombus;whiteSpace=wrap;html=1;" parent="1" vertex="1">
          <mxGeometry x="370" y="270" width="80" height="80" as="geometry" />
        </mxCell>
        <mxCell id="xCD-Z-dLWQwIkPLPfsmC-7" value="문의" style="rhombus;whiteSpace=wrap;html=1;" parent="1" vertex="1">
          <mxGeometry x="440" y="480" width="80" height="80" as="geometry" />
        </mxCell>
        <mxCell id="xCD-Z-dLWQwIkPLPfsmC-8" value="등록" style="rhombus;whiteSpace=wrap;html=1;" parent="1" vertex="1">
          <mxGeometry x="180" y="490" width="80" height="80" as="geometry" />
        </mxCell>
        <mxCell id="xCD-Z-dLWQwIkPLPfsmC-9" value="포함" style="rhombus;whiteSpace=wrap;html=1;" parent="1" vertex="1">
          <mxGeometry x="890" y="600" width="80" height="80" as="geometry" />
        </mxCell>
        <mxCell id="xCD-Z-dLWQwIkPLPfsmC-10" value="답변" style="ellipse;whiteSpace=wrap;html=1;" parent="1" vertex="1">
          <mxGeometry x="320" y="565" width="80" height="40" as="geometry" />
        </mxCell>
        <mxCell id="xCD-Z-dLWQwIkPLPfsmC-11" value="상태" style="ellipse;whiteSpace=wrap;html=1;" parent="1" vertex="1">
          <mxGeometry x="410" y="565" width="80" height="40" as="geometry" />
        </mxCell>
        <mxCell id="xCD-Z-dLWQwIkPLPfsmC-12" value="비밀번호" style="ellipse;whiteSpace=wrap;html=1;" parent="1" vertex="1">
          <mxGeometry x="500" y="565" width="80" height="40" as="geometry" />
        </mxCell>
        <mxCell id="xCD-Z-dLWQwIkPLPfsmC-13" value="내용" style="ellipse;whiteSpace=wrap;html=1;" parent="1" vertex="1">
          <mxGeometry x="590" y="565" width="80" height="40" as="geometry" />
        </mxCell>
        <mxCell id="xCD-Z-dLWQwIkPLPfsmC-14" value="결제번호" style="ellipse;whiteSpace=wrap;html=1;" parent="1" vertex="1">
          <mxGeometry x="460" y="230" width="80" height="40" as="geometry" />
        </mxCell>
        <mxCell id="xCD-Z-dLWQwIkPLPfsmC-15" value="상태" style="ellipse;whiteSpace=wrap;html=1;" parent="1" vertex="1">
          <mxGeometry x="600" y="240" width="80" height="40" as="geometry" />
        </mxCell>
        <mxCell id="xCD-Z-dLWQwIkPLPfsmC-16" value="총 가격" style="ellipse;whiteSpace=wrap;html=1;" parent="1" vertex="1">
          <mxGeometry x="690" y="230" width="80" height="40" as="geometry" />
        </mxCell>
        <mxCell id="xCD-Z-dLWQwIkPLPfsmC-17" value="결제가격" style="ellipse;whiteSpace=wrap;html=1;" parent="1" vertex="1">
          <mxGeometry x="460" y="190" width="80" height="40" as="geometry" />
        </mxCell>
        <mxCell id="xCD-Z-dLWQwIkPLPfsmC-18" value="사용포인트" style="ellipse;whiteSpace=wrap;html=1;" parent="1" vertex="1">
          <mxGeometry x="600" y="190" width="80" height="40" as="geometry" />
        </mxCell>
        <mxCell id="xCD-Z-dLWQwIkPLPfsmC-19" value="적립포인트" style="ellipse;whiteSpace=wrap;html=1;" parent="1" vertex="1">
          <mxGeometry x="690" y="190" width="80" height="40" as="geometry" />
        </mxCell>
        <mxCell id="xCD-Z-dLWQwIkPLPfsmC-20" value="&lt;u&gt;제품번호&lt;/u&gt;" style="ellipse;whiteSpace=wrap;html=1;" parent="1" vertex="1">
          <mxGeometry x="800" y="510" width="80" height="40" as="geometry" />
        </mxCell>
        <mxCell id="xCD-Z-dLWQwIkPLPfsmC-21" value="권한" style="ellipse;whiteSpace=wrap;html=1;" parent="1" vertex="1">
          <mxGeometry x="50" y="380" width="80" height="40" as="geometry" />
        </mxCell>
        <mxCell id="xCD-Z-dLWQwIkPLPfsmC-22" value="&lt;u&gt;아이디&lt;/u&gt;" style="ellipse;whiteSpace=wrap;html=1;" parent="1" vertex="1">
          <mxGeometry x="50" y="320" width="80" height="40" as="geometry" />
        </mxCell>
        <mxCell id="xCD-Z-dLWQwIkPLPfsmC-23" value="" style="endArrow=none;html=1;rounded=0;entryX=0.5;entryY=1;entryDx=0;entryDy=0;exitX=0.5;exitY=0;exitDx=0;exitDy=0;" parent="1" source="xCD-Z-dLWQwIkPLPfsmC-8" target="xCD-Z-dLWQwIkPLPfsmC-1" edge="1">
          <mxGeometry width="50" height="50" relative="1" as="geometry">
            <mxPoint x="170" y="210" as="sourcePoint" />
            <mxPoint x="220" y="160" as="targetPoint" />
          </mxGeometry>
        </mxCell>
        <mxCell id="xCD-Z-dLWQwIkPLPfsmC-24" value="" style="endArrow=none;html=1;rounded=0;exitX=1;exitY=0.5;exitDx=0;exitDy=0;entryX=0;entryY=0.5;entryDx=0;entryDy=0;" parent="1" source="xCD-Z-dLWQwIkPLPfsmC-5" target="xCD-Z-dLWQwIkPLPfsmC-8" edge="1">
          <mxGeometry width="50" height="50" relative="1" as="geometry">
            <mxPoint x="170" y="210" as="sourcePoint" />
            <mxPoint x="220" y="160" as="targetPoint" />
          </mxGeometry>
        </mxCell>
        <mxCell id="xCD-Z-dLWQwIkPLPfsmC-25" value="" style="endArrow=none;html=1;rounded=0;entryX=0.5;entryY=0;entryDx=0;entryDy=0;exitX=0.5;exitY=1;exitDx=0;exitDy=0;" parent="1" source="xCD-Z-dLWQwIkPLPfsmC-8" target="xCD-Z-dLWQwIkPLPfsmC-4" edge="1">
          <mxGeometry width="50" height="50" relative="1" as="geometry">
            <mxPoint x="220" y="350" as="sourcePoint" />
            <mxPoint x="220" y="160" as="targetPoint" />
          </mxGeometry>
        </mxCell>
        <mxCell id="xCD-Z-dLWQwIkPLPfsmC-28" value="" style="endArrow=none;html=1;rounded=0;entryX=0;entryY=0.5;entryDx=0;entryDy=0;exitX=1;exitY=0.5;exitDx=0;exitDy=0;" parent="1" source="xCD-Z-dLWQwIkPLPfsmC-3" target="xCD-Z-dLWQwIkPLPfsmC-9" edge="1">
          <mxGeometry width="50" height="50" relative="1" as="geometry">
            <mxPoint x="300" y="210" as="sourcePoint" />
            <mxPoint x="350" y="160" as="targetPoint" />
          </mxGeometry>
        </mxCell>
        <mxCell id="xCD-Z-dLWQwIkPLPfsmC-29" value="" style="endArrow=none;html=1;rounded=0;exitX=0;exitY=0.5;exitDx=0;exitDy=0;entryX=1;entryY=0.5;entryDx=0;entryDy=0;" parent="1" source="xCD-Z-dLWQwIkPLPfsmC-7" target="xCD-Z-dLWQwIkPLPfsmC-1" edge="1">
          <mxGeometry width="50" height="50" relative="1" as="geometry">
            <mxPoint x="300" y="210" as="sourcePoint" />
            <mxPoint x="350" y="160" as="targetPoint" />
          </mxGeometry>
        </mxCell>
        <mxCell id="xCD-Z-dLWQwIkPLPfsmC-30" value="" style="endArrow=none;html=1;rounded=0;entryX=0;entryY=0.5;entryDx=0;entryDy=0;exitX=1;exitY=0.5;exitDx=0;exitDy=0;" parent="1" source="xCD-Z-dLWQwIkPLPfsmC-7" target="xCD-Z-dLWQwIkPLPfsmC-2" edge="1">
          <mxGeometry width="50" height="50" relative="1" as="geometry">
            <mxPoint x="300" y="210" as="sourcePoint" />
            <mxPoint x="350" y="160" as="targetPoint" />
          </mxGeometry>
        </mxCell>
        <mxCell id="xCD-Z-dLWQwIkPLPfsmC-31" value="" style="endArrow=none;html=1;rounded=0;entryX=0;entryY=0.5;entryDx=0;entryDy=0;exitX=1;exitY=0.5;exitDx=0;exitDy=0;" parent="1" source="xCD-Z-dLWQwIkPLPfsmC-1" target="xCD-Z-dLWQwIkPLPfsmC-6" edge="1">
          <mxGeometry width="50" height="50" relative="1" as="geometry">
            <mxPoint x="300" y="210" as="sourcePoint" />
            <mxPoint x="350" y="160" as="targetPoint" />
          </mxGeometry>
        </mxCell>
        <mxCell id="xCD-Z-dLWQwIkPLPfsmC-33" value="주문내역" style="rounded=0;whiteSpace=wrap;html=1;" parent="1" vertex="1">
          <mxGeometry x="510" y="280" width="120" height="60" as="geometry" />
        </mxCell>
        <mxCell id="xCD-Z-dLWQwIkPLPfsmC-34" value="포함" style="rhombus;whiteSpace=wrap;html=1;" parent="1" vertex="1">
          <mxGeometry x="1030" y="300" width="80" height="80" as="geometry" />
        </mxCell>
        <mxCell id="xCD-Z-dLWQwIkPLPfsmC-35" value="포함" style="rhombus;whiteSpace=wrap;html=1;" parent="1" vertex="1">
          <mxGeometry x="1030" y="430" width="80" height="80" as="geometry" />
        </mxCell>
        <mxCell id="xCD-Z-dLWQwIkPLPfsmC-36" value="제품 중분류" style="rounded=0;whiteSpace=wrap;html=1;" parent="1" vertex="1">
          <mxGeometry x="1020" y="610" width="120" height="60" as="geometry" />
        </mxCell>
        <mxCell id="xCD-Z-dLWQwIkPLPfsmC-37" value="" style="endArrow=none;html=1;rounded=0;entryX=0;entryY=0.5;entryDx=0;entryDy=0;exitX=1;exitY=0.5;exitDx=0;exitDy=0;" parent="1" source="xCD-Z-dLWQwIkPLPfsmC-2" target="xCD-Z-dLWQwIkPLPfsmC-34" edge="1">
          <mxGeometry width="50" height="50" relative="1" as="geometry">
            <mxPoint x="840" y="250" as="sourcePoint" />
            <mxPoint x="890" y="200" as="targetPoint" />
          </mxGeometry>
        </mxCell>
        <mxCell id="xCD-Z-dLWQwIkPLPfsmC-39" value="" style="endArrow=none;html=1;rounded=0;entryX=0;entryY=0.5;entryDx=0;entryDy=0;exitX=1;exitY=0.5;exitDx=0;exitDy=0;" parent="1" source="xCD-Z-dLWQwIkPLPfsmC-2" target="xCD-Z-dLWQwIkPLPfsmC-35" edge="1">
          <mxGeometry width="50" height="50" relative="1" as="geometry">
            <mxPoint x="840" y="250" as="sourcePoint" />
            <mxPoint x="890" y="200" as="targetPoint" />
          </mxGeometry>
        </mxCell>
        <mxCell id="xCD-Z-dLWQwIkPLPfsmC-40" value="" style="endArrow=none;html=1;rounded=0;entryX=0.5;entryY=1;entryDx=0;entryDy=0;exitX=0.417;exitY=0;exitDx=0;exitDy=0;exitPerimeter=0;" parent="1" source="xCD-Z-dLWQwIkPLPfsmC-36" target="xCD-Z-dLWQwIkPLPfsmC-35" edge="1">
          <mxGeometry width="50" height="50" relative="1" as="geometry">
            <mxPoint x="840" y="250" as="sourcePoint" />
            <mxPoint x="890" y="200" as="targetPoint" />
          </mxGeometry>
        </mxCell>
        <mxCell id="xCD-Z-dLWQwIkPLPfsmC-41" value="" style="endArrow=none;html=1;rounded=0;entryX=0;entryY=0.5;entryDx=0;entryDy=0;" parent="1" source="xCD-Z-dLWQwIkPLPfsmC-9" target="xCD-Z-dLWQwIkPLPfsmC-36" edge="1">
          <mxGeometry width="50" height="50" relative="1" as="geometry">
            <mxPoint x="840" y="250" as="sourcePoint" />
            <mxPoint x="890" y="200" as="targetPoint" />
          </mxGeometry>
        </mxCell>
        <mxCell id="xCD-Z-dLWQwIkPLPfsmC-173" value="" style="endArrow=none;html=1;rounded=0;exitX=1;exitY=0.5;exitDx=0;exitDy=0;entryX=0;entryY=0.5;entryDx=0;entryDy=0;" parent="1" source="xCD-Z-dLWQwIkPLPfsmC-6" target="xCD-Z-dLWQwIkPLPfsmC-33" edge="1">
          <mxGeometry width="50" height="50" relative="1" as="geometry">
            <mxPoint x="600" y="370" as="sourcePoint" />
            <mxPoint x="650" y="320" as="targetPoint" />
          </mxGeometry>
        </mxCell>
        <mxCell id="xCD-Z-dLWQwIkPLPfsmC-176" value="주문목록" style="rhombus;whiteSpace=wrap;html=1;" parent="1" vertex="1">
          <mxGeometry x="720" y="270" width="80" height="80" as="geometry" />
        </mxCell>
        <mxCell id="xCD-Z-dLWQwIkPLPfsmC-177" value="옵션" style="rounded=0;whiteSpace=wrap;html=1;" parent="1" vertex="1">
          <mxGeometry x="1010" y="180" width="120" height="60" as="geometry" />
        </mxCell>
        <mxCell id="xCD-Z-dLWQwIkPLPfsmC-178" value="" style="endArrow=none;html=1;rounded=0;entryX=0.5;entryY=1;entryDx=0;entryDy=0;" parent="1" target="xCD-Z-dLWQwIkPLPfsmC-177" edge="1">
          <mxGeometry width="50" height="50" relative="1" as="geometry">
            <mxPoint x="1070" y="300" as="sourcePoint" />
            <mxPoint x="1120" y="320" as="targetPoint" />
          </mxGeometry>
        </mxCell>
        <mxCell id="xCD-Z-dLWQwIkPLPfsmC-179" value="" style="endArrow=none;html=1;rounded=0;entryX=0;entryY=0.5;entryDx=0;entryDy=0;exitX=1;exitY=0.5;exitDx=0;exitDy=0;" parent="1" source="xCD-Z-dLWQwIkPLPfsmC-176" target="xCD-Z-dLWQwIkPLPfsmC-177" edge="1">
          <mxGeometry width="50" height="50" relative="1" as="geometry">
            <mxPoint x="1070" y="370" as="sourcePoint" />
            <mxPoint x="1120" y="320" as="targetPoint" />
          </mxGeometry>
        </mxCell>
        <mxCell id="xCD-Z-dLWQwIkPLPfsmC-180" value="" style="endArrow=none;html=1;rounded=0;entryX=0;entryY=0.5;entryDx=0;entryDy=0;exitX=1;exitY=0.5;exitDx=0;exitDy=0;" parent="1" source="xCD-Z-dLWQwIkPLPfsmC-33" target="xCD-Z-dLWQwIkPLPfsmC-176" edge="1">
          <mxGeometry width="50" height="50" relative="1" as="geometry">
            <mxPoint x="650" y="370" as="sourcePoint" />
            <mxPoint x="700" y="320" as="targetPoint" />
          </mxGeometry>
        </mxCell>
        <mxCell id="xCD-Z-dLWQwIkPLPfsmC-181" value="&lt;u&gt;총가격&lt;/u&gt;" style="ellipse;whiteSpace=wrap;html=1;" parent="1" vertex="1">
          <mxGeometry x="770" y="350" width="80" height="40" as="geometry" />
        </mxCell>
        <mxCell id="xCD-Z-dLWQwIkPLPfsmC-182" value="&lt;u&gt;수량&lt;/u&gt;" style="ellipse;whiteSpace=wrap;html=1;" parent="1" vertex="1">
          <mxGeometry x="690" y="350" width="80" height="40" as="geometry" />
        </mxCell>
        <mxCell id="xCD-Z-dLWQwIkPLPfsmC-183" value="보유" style="rhombus;whiteSpace=wrap;html=1;" parent="1" vertex="1">
          <mxGeometry x="180" y="10" width="80" height="80" as="geometry" />
        </mxCell>
        <mxCell id="xCD-Z-dLWQwIkPLPfsmC-184" value="" style="endArrow=none;html=1;rounded=0;entryX=0.5;entryY=1;entryDx=0;entryDy=0;exitX=0.5;exitY=0;exitDx=0;exitDy=0;" parent="1" source="xCD-Z-dLWQwIkPLPfsmC-1" target="xCD-Z-dLWQwIkPLPfsmC-183" edge="1">
          <mxGeometry width="50" height="50" relative="1" as="geometry">
            <mxPoint x="140" y="370" as="sourcePoint" />
            <mxPoint x="190" y="320" as="targetPoint" />
          </mxGeometry>
        </mxCell>
        <mxCell id="xCD-Z-dLWQwIkPLPfsmC-185" value="주소록" style="rounded=0;whiteSpace=wrap;html=1;" parent="1" vertex="1">
          <mxGeometry x="510" y="20" width="120" height="60" as="geometry" />
        </mxCell>
        <mxCell id="xCD-Z-dLWQwIkPLPfsmC-186" value="배송지" style="rhombus;whiteSpace=wrap;html=1;" parent="1" vertex="1">
          <mxGeometry x="530" y="130" width="80" height="80" as="geometry" />
        </mxCell>
        <mxCell id="xCD-Z-dLWQwIkPLPfsmC-187" value="&lt;u&gt;옵션번호&lt;/u&gt;" style="ellipse;whiteSpace=wrap;html=1;" parent="1" vertex="1">
          <mxGeometry x="1150" y="140" width="80" height="40" as="geometry" />
        </mxCell>
        <mxCell id="xCD-Z-dLWQwIkPLPfsmC-188" value="옵션명" style="ellipse;whiteSpace=wrap;html=1;" parent="1" vertex="1">
          <mxGeometry x="1150" y="190" width="80" height="40" as="geometry" />
        </mxCell>
        <mxCell id="xCD-Z-dLWQwIkPLPfsmC-189" value="" style="endArrow=none;html=1;rounded=0;entryX=1;entryY=0.5;entryDx=0;entryDy=0;exitX=0;exitY=0.5;exitDx=0;exitDy=0;" parent="1" source="xCD-Z-dLWQwIkPLPfsmC-185" target="xCD-Z-dLWQwIkPLPfsmC-183" edge="1">
          <mxGeometry width="50" height="50" relative="1" as="geometry">
            <mxPoint x="330" y="170" as="sourcePoint" />
            <mxPoint x="380" y="120" as="targetPoint" />
          </mxGeometry>
        </mxCell>
        <mxCell id="xCD-Z-dLWQwIkPLPfsmC-190" value="" style="endArrow=none;html=1;rounded=0;entryX=0.5;entryY=1;entryDx=0;entryDy=0;exitX=0.5;exitY=0;exitDx=0;exitDy=0;" parent="1" source="xCD-Z-dLWQwIkPLPfsmC-186" target="xCD-Z-dLWQwIkPLPfsmC-185" edge="1">
          <mxGeometry width="50" height="50" relative="1" as="geometry">
            <mxPoint x="330" y="170" as="sourcePoint" />
            <mxPoint x="380" y="120" as="targetPoint" />
          </mxGeometry>
        </mxCell>
        <mxCell id="xCD-Z-dLWQwIkPLPfsmC-191" value="" style="endArrow=none;html=1;rounded=0;entryX=0.5;entryY=1;entryDx=0;entryDy=0;exitX=0.5;exitY=0;exitDx=0;exitDy=0;" parent="1" source="xCD-Z-dLWQwIkPLPfsmC-33" target="xCD-Z-dLWQwIkPLPfsmC-186" edge="1">
          <mxGeometry width="50" height="50" relative="1" as="geometry">
            <mxPoint x="330" y="170" as="sourcePoint" />
            <mxPoint x="380" y="120" as="targetPoint" />
          </mxGeometry>
        </mxCell>
        <mxCell id="j9Hwo7b6BAEOyJMmNeoF-1" value="수량" style="ellipse;whiteSpace=wrap;html=1;" vertex="1" parent="1">
          <mxGeometry x="1150" y="240" width="80" height="40" as="geometry" />
        </mxCell>
        <mxCell id="j9Hwo7b6BAEOyJMmNeoF-3" value="장바구니" style="rhombus;whiteSpace=wrap;html=1;" vertex="1" parent="1">
          <mxGeometry x="560" y="-140" width="80" height="80" as="geometry" />
        </mxCell>
        <mxCell id="j9Hwo7b6BAEOyJMmNeoF-4" value="" style="endArrow=none;html=1;rounded=0;entryX=0;entryY=0.5;entryDx=0;entryDy=0;exitX=0.5;exitY=0;exitDx=0;exitDy=0;" edge="1" parent="1" source="xCD-Z-dLWQwIkPLPfsmC-1" target="j9Hwo7b6BAEOyJMmNeoF-3">
          <mxGeometry width="50" height="50" relative="1" as="geometry">
            <mxPoint x="430" y="350" as="sourcePoint" />
            <mxPoint x="480" y="300" as="targetPoint" />
          </mxGeometry>
        </mxCell>
        <mxCell id="j9Hwo7b6BAEOyJMmNeoF-5" value="" style="endArrow=none;html=1;rounded=0;entryX=1;entryY=0.5;entryDx=0;entryDy=0;exitX=0;exitY=0.5;exitDx=0;exitDy=0;" edge="1" parent="1" source="xCD-Z-dLWQwIkPLPfsmC-177" target="j9Hwo7b6BAEOyJMmNeoF-3">
          <mxGeometry width="50" height="50" relative="1" as="geometry">
            <mxPoint x="430" y="190" as="sourcePoint" />
            <mxPoint x="480" y="140" as="targetPoint" />
          </mxGeometry>
        </mxCell>
      </root>
    </mxGraphModel>
  </diagram>
</mxfile>
